<?xml version="1.0" encoding="utf-8"?>
<!-- Generator: Adobe Illustrator 21.0.0, SVG Export Plug-In . SVG Version: 6.00 Build 0)  -->
<svg version="1.1" id="Capa_1" xmlns="http://www.w3.org/2000/svg" xmlns:xlink="http://www.w3.org/1999/xlink" x="0px" y="0px"
	 viewBox="0 0 14.5 14.5" style="enable-background:new 0 0 14.5 14.5;" xml:space="preserve">
<style type="text/css">
	.st0{fill:#A4CC5F;}
</style>
<path id="XMLID_491_" class="st0" d="M14.5,12.6c0,0.6-0.4,1.2-1,1.4c-2.8,1.2-6.8,0-9.9-3.1c-2.2-2.2-3.6-5-3.6-7.5
	c0-0.9,0.2-1.7,0.5-2.4c0.2-0.5,0.7-0.8,1.2-0.9c0.4-0.1,0.8,0,1,0.3l2,2c0.4,0.4,0.4,1.3-0.2,1.9L3.8,5C3.8,5.1,3.7,5.2,3.7,5.4
	c0,0,0,0.1,0,0.2l5.3,5.3C9.1,11,9.4,11,9.7,10.7l0.7-0.7c0.6-0.6,1.4-0.6,1.9-0.2l2,2C14.4,12,14.5,12.3,14.5,12.6L14.5,12.6z
	 M1,3.4c0,2.2,1.2,4.8,3.3,6.9c2.8,2.8,6.4,4,8.9,2.9c0.3-0.1,0.4-0.4,0.4-0.6c0-0.1,0-0.1,0-0.2l-2-2c-0.1-0.1-0.4-0.1-0.6,0.2
	l-0.7,0.7c-0.2,0.2-0.6,0.4-0.9,0.5c-0.4,0-0.7,0-1-0.3L3.1,6.2C2.6,5.7,2.7,4.8,3.2,4.3L4,3.6c0.1-0.1,0.2-0.3,0.2-0.4
	c0,0,0-0.1,0-0.2l-2-2c0,0-0.2,0-0.2,0C1.8,1,1.5,1.2,1.4,1.4C1.1,2,1,2.6,1,3.4L1,3.4z"/>
</svg>
