<?xml version="1.0" encoding="utf-8"?>
<!-- Generator: Adobe Illustrator 21.0.0, SVG Export Plug-In . SVG Version: 6.00 Build 0)  -->
<svg version="1.1" id="Capa_1" xmlns="http://www.w3.org/2000/svg" xmlns:xlink="http://www.w3.org/1999/xlink" x="0px" y="0px"
	 viewBox="0 0 14.5 20" style="enable-background:new 0 0 14.5 20;" xml:space="preserve">
<style type="text/css">
	.st0{fill:#A4CC5F;}
</style>
<g>
	<path class="st0" d="M7.3,0.1c-3.9,0-7.1,3.2-7.1,7.1c0,3.8,6.5,12.3,6.8,12.6C7,19.9,7.1,20,7.3,20c0.1,0,0.3-0.1,0.3-0.2
		c0.3-0.4,6.8-8.8,6.8-12.6C14.4,3.3,11.2,0.1,7.3,0.1z M7.3,18.9C5.9,17,1,10.3,1,7.2c0-3.5,2.8-6.3,6.3-6.3c3.5,0,6.3,2.8,6.3,6.3
		C13.5,10.3,8.6,17,7.3,18.9z"/>
	<path class="st0" d="M7.3,3.9c-1.7,0-3.1,1.4-3.1,3.1c0,1.7,1.4,3.1,3.1,3.1c1.7,0,3.1-1.4,3.1-3.1C10.4,5.3,9,3.9,7.3,3.9z
		 M7.3,9.3C6,9.3,5,8.3,5,7.1s1-2.3,2.3-2.3c1.3,0,2.3,1,2.3,2.3S8.5,9.3,7.3,9.3z"/>
</g>
</svg>
